<?xml version="1.0" encoding="utf-8"?>
<svg width="52" height="52" viewBox="0 0 64 64" xmlns="http://www.w3.org/2000/svg">

  <rect width="64" height="64" fill="white" />

  <g transform="scale(0.8) translate(8, 8)">
    <path fill="#1C2033" d="M16.8,62.3c-0.7,0-1.3-0.1-2-0.4c-1.7-0.8-2.8-2.5-2.8-4.4V8.2c0-3.5,2.9-6.4,6.4-6.4h27.3c3.5,0,6.4,2.9,6.4,6.4v49.1c0,1.9-1.1,3.6-2.8,4.4c-1.7,0.8-3.7,0.5-5.2-0.8l-11-9.6c-0.7-0.5-1.5-0.4-2.2,0L19.9,61C19,61.8,17.9,62.3,16.8,62.3z M18.3,6.3c-1.1,0-1.9,0.9-1.9,1.9v49.3c0,0.1,0,0.2,0.2,0.3c0.2,0.1,0.3,0,0.3,0l11.2-9.9c2.3-1.8,5.5-1.8,7.8,0l0.2,0.2l10.9,9.6c0,0,0.1,0.1,0.3,0c0.2-0.1,0.2-0.2,0.2-0.3V8.2c0-1.1-0.9-1.9-1.9-1.9H18.3z"/>
  </g>
</svg>
