<?xml version="1.0" encoding="utf-8"?>
<svg width="52" height="52" viewBox="0 0 64 64" xmlns="http://www.w3.org/2000/svg">
  <rect width="64" height="64" fill="white" />

  <g transform="scale(0.8) translate(8, 8)">
    <path fill="#1C2033" d="M13.9007 49.9H14.3007C15.9007 49.9 17.4007 49.9 19.0007 49.9C19.1007 49.9 19.4007 49.8 19.4007 50.2C20.2007 54.4 23.1007 56.8 27.0007 58C30.2007 59 33.6007 59 36.9007 58.1C41.0007 57.3 43.7007 54.7 45.1007 50.8C46.1007 48.1 46.4007 45.4 46.5007 42.8C46.5007 42.1 46.5007 37 46.5007 36.5H46.4007C46.3007 36.6 46.3007 36.9 46.1007 37.1C43.4007 42.3 38.6007 45.3 33.3007 45.4C20.7007 45.7 12.6007 38.4 12.3007 24C12.2007 21 12.4007 18.2 13.3007 15.5C15.7007 6.8 22.2007 1.1 31.9007 1C39.3007 1 44.2007 5.7 46.0007 9.6C46.1007 9.7 46.1007 9.9 46.3007 9.7V2.3H51.7007C51.7007 36.3 51.7007 42.5 51.7007 42.5C51.7007 51.9 48.5007 60 39.2007 62.2C30.9007 64.2 20.0007 62.8 15.5007 55.3C14.5007 53.6 14.0007 51.8 13.9007 49.9ZM31.7007 5.4C25.4007 5.3 18.4007 10.3 17.7007 21.6C17.3007 28.8 19.5007 36.4 26.3007 39.6C29.7007 41.2 35.3007 41.4 39.4007 38.5C45.2007 34.4 47.0007 26.8 46.0007 19.7C44.9007 11.3 40.3007 5.4 31.7007 5.4Z"/>
  </g>
</svg>
